{
  "accessors": [
    {
      "bufferView": 1,
      "componentType": 5126,
      "count": 18882,
      "max": [
        4.3442049026489258,
        4.2500629425048828,
        4.8510093688964844
      ],
      "min": [
        -4.5936069488525391,
        -3.5667486190795898,
        -4.8510098457336426
      ],
      "type": "VEC3"
    },
    {
      "bufferView": 1,
      "byteOffset": 226584,
      "componentType": 5126,
      "count": 18882,
      "max": [
        0.99999988079071045,
        0.99993991851806641,
        0.99979496002197266
      ],
      "min": [
        -0.99999988079071045,
        -0.99993979930877686,
        -0.9997943639755249
      ],
      "type": "VEC3"
    },
    {
      "bufferView": 0,
      "componentType": 5125,
      "count": 93312,
      "max": [
        18881
      ],
      "min": [
        0
      ],
      "type": "SCALAR"
    },
    {
      "bufferView": 1,
      "byteOffset": 453168,
      "componentType": 5126,
      "count": 56,
      "max": [
        1.0000004768371582,
        1,
        1.0000005960464478
      ],
      "min": [
        -1.0000003576278687,
        -1,
        -1.0000003576278687
      ],
      "type": "VEC3"
    },
    {
      "bufferView": 1,
      "byteOffset": 453840,
      "componentType": 5126,
      "count": 56,
      "max": [
        1,
        1,
        1
      ],
      "min": [
        -1,
        -1,
        -1
      ],
      "type": "VEC3"
    },
    {
      "bufferView": 0,
      "byteOffset": 373248,
      "componentType": 5125,
      "count": 84,
      "max": [
        55
      ],
      "min": [
        0
      ],
      "type": "SCALAR"
    },
    {
      "bufferView": 2,
      "componentType": 5126,
      "count": 25,
      "max": [
        1.0416666269302368
      ],
      "min": [
        0.041666667908430099
      ],
      "type": "SCALAR"
    },
    {
      "bufferView": 4,
      "componentType": 5126,
      "count": 25,
      "max": [
        0,
        1,
        -0,
        1
      ],
      "min": [
        0,
        -0.99020445346832275,
        -0,
        -1.6292068494294654e-07
      ],
      "type": "VEC4"
    },
    {
      "bufferView": 2,
      "byteOffset": 100,
      "componentType": 5126,
      "count": 10,
      "max": [
        1.0416666269302368
      ],
      "min": [
        0.4166666567325592
      ],
      "type": "SCALAR"
    },
    {
      "bufferView": 3,
      "componentType": 5126,
      "count": 10,
      "max": [
        0.071538358926773071,
        0.16797830164432526,
        20.857288360595703
      ],
      "min": [
        -0.48641583323478699,
        0.16797830164432526,
        20.857288360595703
      ],
      "type": "VEC3"
    }
  ],
  "animations": [
    {
      "channels": [
        {
          "sampler": 0,
          "target": {
            "node": 4,
            "path": "rotation"
          }
        }
      ],
      "name": "CircleAction",
      "samplers": [
        {
          "input": 6,
          "interpolation": "LINEAR",
          "output": 7
        }
      ]
    },
    {
      "channels": [
        {
          "sampler": 0,
          "target": {
            "node": 9,
            "path": "translation"
          }
        }
      ],
      "name": "CameraAction",
      "samplers": [
        {
          "input": 8,
          "interpolation": "LINEAR",
          "output": 9
        }
      ]
    }
  ],
  "asset": {
    "extras": {
      "author": "isslater182 (https://sketchfab.com/isslater182)",
      "license": "CC-BY-4.0 (http://creativecommons.org/licenses/by/4.0/)",
      "source": "https://sketchfab.com/3d-models/chef-hat-cacfc7474a604ed4b0275b8a3293eff6",
      "title": "Chef Hat"
    },
    "generator": "Sketchfab-7.8.0",
    "version": "2.0"
  },
  "bufferViews": [
    {
      "buffer": 0,
      "byteLength": 373584,
      "byteOffset": 0,
      "name": "floatBufferViews",
      "target": 34963
    },
    {
      "buffer": 0,
      "byteLength": 454512,
      "byteOffset": 373584,
      "byteStride": 12,
      "name": "floatBufferViews",
      "target": 34962
    },
    {
      "buffer": 0,
      "byteLength": 140,
      "byteOffset": 828096,
      "name": "floatBufferViews"
    },
    {
      "buffer": 0,
      "byteLength": 120,
      "byteOffset": 828236,
      "byteStride": 12,
      "name": "floatBufferViews"
    },
    {
      "buffer": 0,
      "byteLength": 400,
      "byteOffset": 828356,
      "byteStride": 16,
      "name": "floatBufferViews"
    }
  ],
  "buffers": [
    {
      "byteLength": 828756,
      "uri": "scene.bin"
    }
  ],
  "materials": [
    {
      "doubleSided": true,
      "emissiveFactor": [
        0,
        0,
        0
      ],
      "name": "Material.001",
      "pbrMetallicRoughness": {
        "baseColorFactor": [
          1,
          1,
          1,
          1
        ],
        "metallicFactor": 1,
        "roughnessFactor": 1
      }
    },
    {
      "doubleSided": true,
      "emissiveFactor": [
        0,
        0,
        0
      ],
      "name": "Material",
      "pbrMetallicRoughness": {
        "baseColorFactor": [
          1,
          1,
          1,
          1
        ],
        "metallicFactor": 1,
        "roughnessFactor": 1
      }
    }
  ],
  "meshes": [
    {
      "primitives": [
        {
          "attributes": {
            "NORMAL": 1,
            "POSITION": 0
          },
          "indices": 2,
          "material": 0,
          "mode": 4
        }
      ]
    },
    {
      "primitives": [
        {
          "attributes": {
            "NORMAL": 4,
            "POSITION": 3
          },
          "indices": 5,
          "material": 1,
          "mode": 4
        }
      ]
    }
  ],
  "nodes": [
    {
      "children": [
        1
      ],
      "name": "RootNode (gltf orientation matrix)",
      "rotation": [
        -0.70710678118654746,
        -0,
        -0,
        0.70710678118654757
      ]
    },
    {
      "children": [
        2
      ],
      "name": "RootNode (model correction matrix)"
    },
    {
      "children": [
        3
      ],
      "name": "root"
    },
    {
      "children": [
        4,
        6,
        8,
        9
      ],
      "matrix": [
        1,
        0,
        0,
        0,
        0,
        2.2204460492503131e-16,
        1,
        0,
        0,
        -1,
        2.2204460492503131e-16,
        0,
        0,
        0,
        0,
        1
      ],
      "name": "GLTF_SceneRootNode"
    },
    {
      "children": [
        5
      ],
      "name": "Hat_0"
    },
    {
      "mesh": 0,
      "name": ""
    },
    {
      "children": [
        7
      ],
      "matrix": [
        1,
        0,
        0,
        0,
        0,
        1.388096809387207,
        0,
        0,
        0,
        0,
        1.4385731220245361,
        0,
        0,
        0.16081568598747253,
        0,
        1
      ],
      "name": "Cube_1"
    },
    {
      "mesh": 1,
      "name": ""
    },
    {
      "name": "Lamp_2",
      "rotation": [
        0.32969138026237488,
        0.70088893175125122,
        -0.39002099633216858,
        0.49793767929077148
      ],
      "translation": [
        12.180928230285645,
        14.455257415771484,
        -1.0054483413696289
      ]
    },
    {
      "name": "Camera_3",
      "rotation": [
        0.7071068286895752,
        0,
        0,
        0.70710670948028564
      ],
      "translation": [
        0.071538344025611877,
        0.16797830164432526,
        20.857288360595703
      ]
    }
  ],
  "scene": 0,
  "scenes": [
    {
      "name": "OSG_Scene",
      "nodes": [
        0
      ]
    }
  ]
}

